<?xml version="1.0" encoding="UTF-8" standalone="no"?>
<svg width="38px" height="38px" viewBox="0 0 38 38" version="1.1" xmlns="http://www.w3.org/2000/svg" xmlns:xlink="http://www.w3.org/1999/xlink">
    <!-- Generator: Sketch 40.2 (33826) - http://www.bohemiancoding.com/sketch -->
    <title>icon-chuck</title>
    <desc>Created with Sketch.</desc>
    <defs></defs>
    <g id="Page-1" stroke="none" stroke-width="1" fill="none" fill-rule="evenodd">
        <g id="Desktop" transform="translate(-389.000000, -368.000000)" stroke="#FFFFFF">
            <g id="icons" transform="translate(390.000000, 150.000000)">
                <g id="icon-chuck" transform="translate(0.000000, 219.000000)">
                    <circle id="Oval" fill="#6B6B6B" cx="18" cy="18" r="18"></circle>
                    <g id="Group" transform="translate(9.000000, 8.000000)" stroke-linecap="round" stroke-linejoin="round">
                        <path d="M13.05,19.8 L13.05,15.3 C15.5358,15.3 17.55,13.2858 17.55,10.8 L17.55,8.55 C17.55,3.8286 13.7223,0 9,0 C4.2786,0 0.45,3.8286 0.45,8.55 L0.45,10.8 C0.45,13.2858 2.4642,15.3 4.95,15.3 L4.95,19.8" id="Stroke-230"></path>
                        <path d="M7.65,15.3 L7.65,19.8" id="Stroke-231"></path>
                        <path d="M10.35,15.3 L10.35,19.8" id="Stroke-232"></path>
                        <path d="M15.75,10.8 C15.75,12.2913 14.5404,13.5 13.05,13.5 C11.5596,13.5 10.35,12.2913 10.35,10.8 C10.35,9.3087 11.5596,8.1 13.05,8.1 C14.5404,8.1 15.75,9.3087 15.75,10.8 L15.75,10.8 Z" id="Stroke-233"></path>
                        <path d="M2.25,10.8 C2.25,12.2913 3.4596,13.5 4.95,13.5 C6.4404,13.5 7.65,12.2913 7.65,10.8 C7.65,9.3087 6.4404,8.1 4.95,8.1 C3.4596,8.1 2.25,9.3087 2.25,10.8 L2.25,10.8 Z" id="Stroke-234"></path>
                        <path d="M3.99726,3.6 C3.99726,6.0606 2.52396,7.2 0.90036,7.2 L0.56286,7.2" id="Stroke-235"></path>
                        <path d="M14.00274,3.6 C14.00274,6.0606 15.47604,7.2 17.09964,7.2 L17.42364,7.2" id="Stroke-236"></path>
                        <polygon id="Stroke-237" points="8.55 13.5 9 12.6 9.45 13.5"></polygon>
                    </g>
                </g>
            </g>
        </g>
    </g>
</svg>