<?xml version="1.0" encoding="UTF-8" standalone="no"?>
<svg width="38px" height="38px" viewBox="0 0 38 38" version="1.1" xmlns="http://www.w3.org/2000/svg" xmlns:xlink="http://www.w3.org/1999/xlink">
    <!-- Generator: Sketch 40.2 (33826) - http://www.bohemiancoding.com/sketch -->
    <title>icon-error</title>
    <desc>Created with Sketch.</desc>
    <defs></defs>
    <g id="Page-1" stroke="none" stroke-width="1" fill="none" fill-rule="evenodd">
        <g id="Desktop" transform="translate(-389.000000, -297.000000)" stroke="#FFFFFF">
            <g id="icons" transform="translate(390.000000, 150.000000)">
                <g id="icon-error" transform="translate(0.000000, 148.000000)">
                    <circle id="Oval-Copy" fill="#E9001C" cx="18" cy="18" r="18"></circle>
                    <g id="Stroke-82-+-Stroke-83-+-Stroke-84" transform="translate(9.000000, 7.000000)" stroke-linecap="round" stroke-linejoin="round">
                        <path d="M17.5,2 C16.947,2 16.5,2.448 16.5,3 C16.5,4.104 15.605,5 14.5,5 C13.397,5 12.5,4.104 12.5,3 C12.5,1.62 11.381,0.5 10,0.5 C8.619,0.5 7.5,1.62 7.5,3 L7.5,5.5" id="Stroke-82"></path>
                        <path d="M3.4883,17.1445 C1.7523,14.6525 2.3633,11.2255 4.8553,9.4885" id="Stroke-83"></path>
                        <path d="M10.5,6.9355 L10.5,5.5005 L5.5,5.5005 L5.5,6.9355 C2.589,7.9665 0.5,10.7365 0.5,14.0005 C0.5,18.1425 3.857,21.5005 8,21.5005 C12.142,21.5005 15.5,18.1425 15.5,14.0005 C15.5,10.7365 13.411,7.9665 10.5,6.9355 L10.5,6.9355 Z" id="Stroke-84"></path>
                    </g>
                </g>
            </g>
        </g>
    </g>
</svg>