<svg width="38" height="38" viewBox="0 0 38 38" xmlns="http://www.w3.org/2000/svg"><g transform="translate(1 1)" stroke="#FFF" fill="none" fill-rule="evenodd"><circle fill="#6B6B6B" cx="18" cy="18" r="18"/><g stroke-linecap="round" stroke-linejoin="round"><path d="M22.05 27.8v-4.5a4.5 4.5 0 0 0 4.5-4.5v-2.25a8.55 8.55 0 0 0-17.1 0v2.25a4.5 4.5 0 0 0 4.5 4.5v4.5M16.65 23.3v4.5M19.35 23.3v4.5"/><path d="M24.75 18.8a2.7 2.7 0 1 1-5.4 0 2.7 2.7 0 0 1 5.4 0zM11.25 18.8a2.7 2.7 0 1 0 5.4 0 2.7 2.7 0 0 0-5.4 0zM12.997 11.6c0 2.46-1.473 3.6-3.097 3.6h-.337M23.003 11.6c0 2.46 1.473 3.6 3.097 3.6h.324M17.55 21.5l.45-.9.45.9z"/></g></g></svg>